# xmcd
#
# Track frame offsets:
#	150
#	16262
#	31242
#	43405
#	60947
#	78952
#	100685
#	118020
#	134487
#	153365
#	173787
#	191275
#	206727
#	222867
#	241012
#	266222
#	286487
#	300505
#
# Disc length: 4237 seconds
#
# Revision: 1
# Processed by: cddbd v1.5.1PL0 Copyright (c) Steve Scherf et al.
# Submitted via: CDex 1.50Beta5
#
DISCID=f2108b12
DTITLE=さまざまなアーティスト - Party
DYEAR=1900
DGENRE=Pop
TTITLE0=Tatu/All The Things She Said
TTITLE1=Britney Spears/(You Drive Me) Crazy
TTITLE2=Sum41/Summer
TTITLE3=Christina Miliam/Am To Pm
TTITLE4=Cher/Believe
TTITLE5=Paulina Rubio/Dont Say Goodbye
TTITLE6=pandora/Dont You Know
TTITLE7=Aqua/Cartoon Heros
TTITLE8=Sisgo/Thong Song
TTITLE9=Apache Indian/Boomshackalak
TTITLE10=Los Del Rio/Macarena (Bayside Boys Remix)
TTITLE11=98/Give Me Just One Night(Una Noche)
TTITLE12=Mad House/Holiday
TTITLE13=JAY-Z/IZZO(H.O.V.A)
TTITLE14=Baha Men/Kokomo
TTITLE15=Wham!/Club Tropicana
TTITLE16=Anddrew W.K/Party Hard
TTITLE17=Backstrret Boys/Large Than Life
EXTD=
EXTT0=
EXTT1=
EXTT2=
EXTT3=
EXTT4=
EXTT5=
EXTT6=
EXTT7=
EXTT8=
EXTT9=
EXTT10=
EXTT11=
EXTT12=
EXTT13=
EXTT14=
EXTT15=
EXTT16=
EXTT17=
PLAYORDER=
